<?xml version="1.0" encoding="UTF-8" standalone="no"?>
<!DOCTYPE svg PUBLIC "-//W3C//DTD SVG 20010904//EN" "http://www.w3.org/TR/2001/REC-SVG-20010904/DTD/svg10.dtd">
<svg version="1.0" xmlns="http://www.w3.org/2000/svg" width="500.000000pt" height="500.000000pt" viewBox="0 0 500.000000 500.000000" preserveAspectRatio="xMidYMid meet">

<g transform="translate(0.000000,500.000000) scale(0.100000,-0.100000)" fill="#000000" stroke="none">
<path d="M2220 4484 c-675 -103 -1227 -506 -1521 -1109 -136 -280 -199 -560 -199 -883 0 -668 335 -1290 894 -1662 463 -308 1053 -408 1601 -270 569 143 1048 534 1305 1065 136 280 200 558 200 867 0 323 -63 603 -199 883 -296 607 -852 1010 -1532 1109 -134 20 -418 19 -549 0z m555 -110 c765 -114 1375 -667 1563 -1419 72 -284 72 -631 1 -910 -173 -678 -689 -1202 -1354 -1376 -171 -44 -301 -61 -485 -61 -184 0 -314 17 -485 61 -665 174 -1184 701 -1354 1376 -71 281 -71 632 0 910 89 350 253 637 510 894 418 417 1015 612 1604 525z"/>
<path d="M2205 4320 c-344 -55 -646 -196 -920 -432 -268 -230 -458 -531 -560 -883 -36 -124 -65 -312 -65 -417 l0 -88 1840 0 1840 0 0 88 c0 105 -29 293 -65 417 -127 439 -387 789 -775 1045 -215 141 -447 230 -710 270 -162 26 -427 26 -585 0z m545 -41 c266 -40 528 -138 739 -277 466 -306 778 -846 803 -1387 l3 -70 -1797 -3 -1798 -2 6 62 c25 291 83 504 201 727 294 562 824 909 1473 965 67 6 295 -3 370 -15z"/>
<path d="M2494 4149 c20 -64 18 -116 -4 -165 -27 -60 -30 -142 -6 -179 24 -36 40 -32 32 8 -18 85 -18 96 3 142 12 27 24 64 27 84 7 49 -17 125 -40 129 -16 3 -18 0 -12 -19z"/>
<path d="M2696 4063 c11 -67 7 -104 -16 -154 -11 -24 -20 -61 -20 -82 0 -42 23 -107 39 -107 17 0 22 19 11 41 -18 32 -14 99 9 149 11 25 21 62 21 84 0 54 -20 116 -38 116 -12 0 -13 -9 -6 -47z"/>
<path d="M2296 4092 c-3 -5 0 -34 6 -65 11 -51 10 -61 -10 -110 -13 -30 -25 -70 -28 -88 -7 -46 16 -113 40 -117 16 -3 18 0 12 19 -19 63 -18 106 4 157 18 41 21 65 18 117 -4 62 -27 111 -42 87z"/>
<path d="M2425 3646 c-39 -17 -93 -78 -100 -114 -10 -46 -19 -54 -75 -71 -233 -73 -434 -257 -528 -484 -35 -84 -65 -218 -60 -273 l3 -39 839 -3 839 -2 -6 87 c-13 191 -99 366 -253 514 -108 102 -193 154 -318 195 -66 20 -70 24 -81 61 -17 57 -43 91 -90 118 -47 28 -120 33 -170 11z m159 -45 c32 -21 66 -68 66 -91 0 -13 -23 -15 -150 -15 -82 0 -150 1 -150 3 0 20 35 74 61 95 43 34 128 38 173 8z m-570 -419 c-83 -75 -143 -177 -192 -323 -19 -55 -34 -85 -45 -87 -10 -2 -17 3 -17 11 0 30 53 174 91 247 63 120 167 227 194 199 7 -7 -3 -22 -31 -47z"/>
<path d="M1607 2614 c-4 -4 -4 -11 -1 -15 3 -5 408 -9 900 -9 788 0 894 2 894 15 0 13 -106 15 -893 15 -492 0 -897 -3 -900 -6z"/>
<path d="M660 2388 c0 -120 47 -354 103 -513 l14 -40 1723 0 1723 0 14 40 c56 159 103 393 103 513 l0 62 -1840 0 -1840 0 0 -62z m782 -85 c12 -11 18 -30 18 -60 0 -41 -1 -43 -29 -43 -25 0 -30 4 -33 28 -2 21 -8 27 -28 27 -21 0 -25 -5 -28 -35 -3 -34 -2 -35 55 -55 l58 -20 3 -74 c4 -95 -8 -111 -86 -111 -71 0 -92 17 -92 77 0 41 1 43 29 43 25 0 30 -4 33 -27 2 -22 8 -28 28 -28 21 0 25 5 28 35 3 34 2 35 -55 55 l-58 20 -3 74 c-4 95 8 111 86 111 38 0 61 -5 74 -17z m223 -5 c26 -114 65 -306 65 -320 0 -13 -8 -18 -30 -18 -25 0 -30 4 -36 35 -6 33 -9 35 -45 35 -36 0 -39 -2 -45 -35 -6 -32 -9 -35 -39 -35 -26 0 -32 4 -29 18 2 9 17 80 34 157 17 77 32 150 35 163 5 18 12 22 45 22 33 0 40 -4 45 -22z m277 5 c14 -12 18 -31 18 -79 0 -35 -5 -66 -10 -69 -7 -4 -7 -12 0 -25 16 -29 12 -123 -6 -148 -13 -19 -24 -22 -90 -22 l-74 0 0 180 0 180 72 0 c52 0 76 -4 90 -17z m232 -5 c13 -18 16 -52 16 -158 0 -170 -5 -180 -90 -180 -88 0 -90 3 -90 180 0 177 2 180 90 180 49 0 61 -4 74 -22z m230 6 c22 -21 23 -186 2 -207 -13 -13 -13 -21 0 -62 20 -68 18 -75 -15 -75 -28 0 -31 4 -47 60 -10 36 -22 60 -30 60 -10 0 -14 -16 -14 -60 l0 -60 -30 0 -30 0 0 180 0 180 74 0 c54 0 79 -4 90 -16z m246 -134 l0 -150 60 0 60 0 0 -30 0 -30 -90 0 -90 0 0 180 0 180 30 0 30 0 0 -150z m326 136 c17 -13 19 -27 19 -166 0 -176 -2 -180 -90 -180 -88 0 -90 4 -90 180 0 176 2 180 90 180 28 0 60 -6 71 -14z m228 1 c11 -8 20 -31 23 -61 l6 -47 -34 3 c-29 2 -34 7 -37 31 -3 21 -9 27 -28 27 l-24 0 0 -120 0 -120 24 0 c19 0 25 6 28 28 3 23 8 28 37 30 l34 3 -6 -47 c-6 -59 -25 -74 -92 -74 -88 0 -90 4 -90 180 0 139 2 153 19 166 25 18 116 18 140 1z m255 -144 c18 -87 35 -168 38 -181 5 -21 3 -23 -28 -20 -29 3 -35 7 -39 33 -5 27 -9 30 -45 30 -36 0 -40 -3 -45 -30 -4 -26 -10 -30 -39 -33 -31 -3 -33 -1 -29 20 3 13 20 94 39 181 l34 157 40 0 40 0 34 -157z m151 7 l0 -150 55 0 c54 0 55 0 55 -30 l0 -30 -90 0 -90 0 0 180 0 180 35 0 35 0 0 -150z"/>
<path d="M1604 2150 c-10 -60 -10 -60 14 -60 24 0 24 2 18 53 -10 74 -21 77 -32 7z"/>
<path d="M1840 2215 c0 -45 1 -46 28 -43 24 3 27 7 27 43 0 36 -3 40 -27 43 -27 3 -28 2 -28 -43z"/>
<path d="M1840 2065 c0 -45 1 -46 28 -43 24 3 27 7 27 43 0 36 -3 40 -27 43 -27 3 -28 2 -28 -43z"/>
<path d="M2070 2140 l0 -121 28 3 27 3 0 115 0 115 -27 3 -28 3 0 -121z"/>
<path d="M2300 2200 c0 -61 0 -61 28 -58 26 3 27 5 27 58 0 53 -1 55 -27 58 -28 3 -28 3 -28 -58z"/>
<path d="M2880 2140 c0 -120 0 -120 24 -120 31 0 36 15 36 120 0 105 -5 120 -36 120 -24 0 -24 0 -24 -120z"/>
<path d="M3376 2185 c-3 -22 -9 -52 -12 -67 -5 -25 -3 -28 20 -28 30 0 29 -4 12 75 l-12 60 -8 -40z"/>
<path d="M810 1768 c0 -19 51 -122 104 -213 280 -472 765 -797 1313 -880 135 -20 411 -20 545 0 274 41 519 137 757 295 184 123 314 245 449 424 85 113 212 336 212 374 0 9 -345 12 -1690 12 -1345 0 -1690 -3 -1690 -12z m3310 -43 c0 -25 -100 -191 -182 -302 -274 -372 -705 -629 -1183 -704 -103 -16 -407 -16 -510 0 -532 84 -1003 392 -1273 833 -41 67 -92 163 -92 173 0 3 729 5 1620 5 891 0 1620 -2 1620 -5z"/>
<path d="M2450 1597 c-34 -17 -53 -58 -41 -90 6 -16 27 -31 66 -47 39 -16 55 -27 53 -39 -4 -21 -42 -26 -58 -6 -14 17 -56 20 -65 5 -4 -6 7 -24 24 -40 57 -57 161 -29 161 45 0 37 -16 54 -74 75 -43 16 -59 46 -31 56 8 4 24 -1 34 -10 20 -18 71 -22 71 -5 0 23 -21 47 -51 58 -41 14 -58 14 -89 -2z"/>
<path d="M1900 1475 l0 -125 60 0 c121 0 165 42 161 154 -1 18 -13 40 -35 62 -33 33 -37 34 -110 34 l-76 0 0 -125z m142 58 c18 -16 25 -77 10 -99 -11 -16 -48 -34 -71 -34 -19 0 -21 6 -21 75 l0 75 32 0 c17 0 40 -7 50 -17z"/>
<path d="M2190 1475 l0 -125 75 0 c73 0 75 1 75 25 0 23 -4 25 -45 25 -43 0 -45 1 -45 30 0 28 2 30 40 30 33 0 40 3 40 20 0 17 -7 20 -40 20 -38 0 -40 2 -40 30 0 29 2 30 45 30 38 0 45 3 45 20 0 18 -7 20 -75 20 l-75 0 0 -125z"/>
<path d="M2660 1475 l0 -125 60 0 c103 0 154 35 167 113 7 44 -18 97 -56 120 -20 12 -51 17 -100 17 l-71 0 0 -125z m145 55 c23 -25 25 -84 4 -105 -9 -9 -32 -18 -52 -22 l-37 -6 0 77 0 76 33 0 c21 0 41 -8 52 -20z"/>
<path d="M2950 1475 l0 -125 80 0 c79 0 80 0 80 25 0 23 -3 25 -51 25 -49 0 -50 1 -47 28 3 24 7 27 46 30 33 3 42 7 42 22 0 15 -9 19 -42 22 -38 3 -43 6 -43 28 0 23 4 25 48 28 39 3 47 6 47 23 0 17 -7 19 -80 19 l-80 0 0 -125z"/>
<path d="M2150 1193 c-24 -8 -40 -35 -40 -65 0 -23 4 -28 24 -28 18 0 25 6 28 23 2 14 11 23 26 25 20 3 22 -1 22 -37 0 -39 -2 -42 -50 -66 l-50 -25 0 -65 0 -65 75 0 75 0 0 35 c0 31 -3 35 -25 35 -14 0 -25 -5 -25 -11 0 -20 -45 -5 -48 17 -2 15 9 27 48 48 l50 27 0 70 c0 65 -2 70 -26 79 -27 11 -60 12 -84 3z"/>
<path d="M2340 1193 c-27 -10 -30 -26 -30 -150 0 -141 6 -153 75 -153 69 0 75 12 75 155 0 117 -1 125 -22 139 -22 16 -69 20 -98 9z m68 -150 l3 -103 -26 0 -25 0 0 106 c0 104 0 105 23 102 21 -3 22 -8 25 -105z"/>
<path d="M2540 1193 c-33 -12 -40 -36 -40 -148 0 -134 10 -155 71 -155 77 0 79 3 79 156 l0 134 -26 10 c-27 11 -60 12 -84 3z m65 -148 l0 -100 -25 0 c-25 0 -25 1 -28 89 -3 105 0 118 30 114 22 -3 23 -7 23 -103z"/>
<path d="M2798 1183 c-35 -43 -98 -156 -98 -179 0 -23 3 -24 60 -24 l60 0 0 -46 c0 -41 2 -45 23 -42 18 2 23 10 25 46 2 23 7 42 13 42 5 0 9 11 9 25 0 14 -4 25 -9 25 -5 0 -11 10 -13 23 -2 14 -11 23 -25 25 -19 3 -23 -1 -23 -22 0 -22 -4 -26 -31 -26 -16 0 -28 3 -26 8 3 4 23 37 46 75 22 37 41 72 41 77 0 17 -36 11 -52 -7z"/>
</g>
</svg>